{"accessors" : [{"bufferView" : 0, "byteOffset" : 0, "componentType" : 5123, "count" : 18624, "type" : "SCALAR", "max" : [18623], "min" : [0]}, {"bufferView" : 1, "byteOffset" : 0, "componentType" : 5126, "count" : 18624, "type" : "VEC3", "max" : [215.81094360351562, 339.3944396972656, 72.08850860595703], "min" : [-215.81094360351562, -475.5945129394531, -69.9738998413086], "name" : "POSITION"}, {"bufferView" : 1, "byteOffset" : 12, "componentType" : 5126, "count" : 18624, "type" : "VEC3", "max" : [1.0000044107437134, 1.0000044107437134, 1.0000044107437134], "min" : [-1.0000044107437134, -1.0000044107437134, -1.0000044107437134], "name" : "NORMAL"}, {"bufferView" : 1, "byteOffset" : 24, "componentType" : 5126, "count" : 18624, "type" : "VEC4", "max" : [1.0000041723251343, 1.0000044107437134, 1.0000044107437134, 1], "min" : [-1.0000041723251343, -0.9994527697563171, -0.9999939203262329, 1], "name" : "TANGENT"}, {"bufferView" : 1, "byteOffset" : 40, "componentType" : 5126, "count" : 18624, "type" : "VEC2", "max" : [0.9995793700218201, 0.9918729066848755], "min" : [0.001453652512282133, 0.0053462982177734375], "name" : "TEXCOORD_0"}, {"bufferView" : 0, "byteOffset" : 37248, "componentType" : 5123, "count" : 468, "type" : "SCALAR", "max" : [467], "min" : [0]}, {"bufferView" : 2, "byteOffset" : 0, "componentType" : 5126, "count" : 468, "type" : "VEC3", "max" : [55.424861907958984, 50.75022506713867, 59.537296295166016], "min" : [-55.424861907958984, -50.75022506713867, -42.4708366394043], "name" : "POSITION"}, {"bufferView" : 2, "byteOffset" : 12, "componentType" : 5126, "count" : 468, "type" : "VEC3", "max" : [0.999896764755249, 0.997247576713562, 0.9885764718055725], "min" : [-0.999896764755249, -0.997247576713562, -0.9756036400794983], "name" : "NORMAL"}, {"bufferView" : 2, "byteOffset" : 24, "componentType" : 5126, "count" : 468, "type" : "VEC4", "max" : [0.9714832305908203, 0.8424854874610901, 0.9660694003105164, 1], "min" : [-0.9714832305908203, -0.8424854874610901, -0.9982117414474487, 1], "name" : "TANGENT"}, {"bufferView" : 2, "byteOffset" : 40, "componentType" : 5126, "count" : 468, "type" : "VEC2", "max" : [0.734860360622406, 0.667669415473938], "min" : [0.5724313855171204, 0.5901556015014648], "name" : "TEXCOORD_0"}, {"bufferView" : 0, "byteOffset" : 38184, "componentType" : 5123, "count" : 1152, "type" : "SCALAR", "max" : [1151], "min" : [0]}, {"bufferView" : 3, "byteOffset" : 0, "componentType" : 5126, "count" : 1152, "type" : "VEC3", "max" : [85.17217254638672, 85.17214965820312, 36.113548278808594], "min" : [-85.17214965820312, -85.17217254638672, -34.295082092285156], "name" : "POSITION"}, {"bufferView" : 3, "byteOffset" : 12, "componentType" : 5126, "count" : 1152, "type" : "VEC3", "max" : [0.9970527291297913, 0.9970526099205017, 0.8660300374031067], "min" : [-0.9970526099205017, -0.9970527291297913, -0.8660300374031067], "name" : "NORMAL"}, {"bufferView" : 3, "byteOffset" : 24, "componentType" : 5126, "count" : 1152, "type" : "VEC4", "max" : [0.999995231628418, 0.999995231628418, 0.90520840883255, 1], "min" : [-0.982715368270874, -0.9827154874801636, -0.90520840883255, 1], "name" : "TANGENT"}, {"bufferView" : 3, "byteOffset" : 40, "componentType" : 5126, "count" : 1152, "type" : "VEC2", "max" : [0.6042640805244446, 0.7090353965759277], "min" : [0.5413993000984192, 0.6559674739837646], "name" : "TEXCOORD_0"}, {"bufferView" : 0, "byteOffset" : 40488, "componentType" : 5123, "count" : 288, "type" : "SCALAR", "max" : [287], "min" : [0]}, {"bufferView" : 4, "byteOffset" : 0, "componentType" : 5126, "count" : 288, "type" : "VEC3", "max" : [93.33808898925781, 93.33808898925781, 7.387562274932861], "min" : [-93.33805847167969, -93.33805847167969, -7.387562274932861], "name" : "POSITION"}, {"bufferView" : 4, "byteOffset" : 12, "componentType" : 5126, "count" : 288, "type" : "VEC3", "max" : [0.9985306262969971, 0.9985306262969971, 0.9898485541343689], "min" : [-0.9985306262969971, -0.9985306262969971, -0.9867876172065735], "name" : "NORMAL"}, {"bufferView" : 4, "byteOffset" : 24, "componentType" : 5126, "count" : 288, "type" : "VEC4", "max" : [0.9923909306526184, 0.9999933242797852, 0.8593186140060425, 1], "min" : [-0.9999933242797852, -0.9923909306526184, -0.7838890552520752, 1], "name" : "TANGENT"}, {"bufferView" : 4, "byteOffset" : 40, "componentType" : 5126, "count" : 288, "type" : "VEC2", "max" : [0.6042640805244446, 0.7090353965759277], "min" : [0.5413993000984192, 0.6559674739837646], "name" : "TEXCOORD_0"}, {"bufferView" : 0, "byteOffset" : 41064, "componentType" : 5123, "count" : 288, "type" : "SCALAR", "max" : [287], "min" : [0]}, {"bufferView" : 5, "byteOffset" : 0, "componentType" : 5126, "count" : 288, "type" : "VEC3", "max" : [93.33808898925781, 93.33808898925781, 7.387562274932861], "min" : [-93.33805847167969, -93.33805847167969, -7.387562274932861], "name" : "POSITION"}, {"bufferView" : 5, "byteOffset" : 12, "componentType" : 5126, "count" : 288, "type" : "VEC3", "max" : [0.9981316924095154, 0.9981316924095154, 0.9887667894363403], "min" : [-0.9981316924095154, -0.9981316924095154, -0.9855490922927856], "name" : "NORMAL"}, {"bufferView" : 5, "byteOffset" : 24, "componentType" : 5126, "count" : 288, "type" : "VEC4", "max" : [0.9919072389602661, 0.9999933242797852, 0.8777214884757996, 1], "min" : [-0.9999933242797852, -0.9919072389602661, -0.8146288394927979, 1], "name" : "TANGENT"}, {"bufferView" : 5, "byteOffset" : 40, "componentType" : 5126, "count" : 288, "type" : "VEC2", "max" : [0.6042640805244446, 0.7090353965759277], "min" : [0.5413993000984192, 0.6559674739837646], "name" : "TEXCOORD_0"}, {"bufferView" : 0, "byteOffset" : 41640, "componentType" : 5123, "count" : 1080, "type" : "SCALAR", "max" : [1079], "min" : [0]}, {"bufferView" : 6, "byteOffset" : 0, "componentType" : 5126, "count" : 1080, "type" : "VEC3", "max" : [99.06383514404297, 101.12682342529297, -3.905925989151001], "min" : [-99.06383514404297, -101.12682342529297, -59.86515426635742], "name" : "POSITION"}, {"bufferView" : 6, "byteOffset" : 12, "componentType" : 5126, "count" : 1080, "type" : "VEC3", "max" : [0.9894121289253235, 0.9130991101264954, 0.9733145833015442], "min" : [-0.9894121289253235, -0.9130991101264954, -0.9967195987701416], "name" : "NORMAL"}, {"bufferView" : 6, "byteOffset" : 24, "componentType" : 5126, "count" : 1080, "type" : "VEC4", "max" : [0.9948983192443848, 0.9967883825302124, 0.9887920618057251, 1], "min" : [-0.9948983192443848, -0.9967883825302124, -0.9965808987617493, 1], "name" : "TANGENT"}, {"bufferView" : 6, "byteOffset" : 40, "componentType" : 5126, "count" : 1080, "type" : "VEC2", "max" : [0.9234161972999573, 0.8827391266822815], "min" : [0.7513445019721985, 0.7206211090087891], "name" : "TEXCOORD_0"}, {"bufferView" : 0, "byteOffset" : 43800, "componentType" : 5123, "count" : 1992, "type" : "SCALAR", "max" : [1991], "min" : [0]}, {"bufferView" : 7, "byteOffset" : 0, "componentType" : 5126, "count" : 1992, "type" : "VEC3", "max" : [98.1756362915039, 91.19364166259766, 78.75787353515625], "min" : [-98.1756362915039, -91.19364166259766, 26.03384017944336], "name" : "POSITION"}, {"bufferView" : 7, "byteOffset" : 12, "componentType" : 5126, "count" : 1992, "type" : "VEC3", "max" : [0.9727320671081543, 0.9913893342018127, 0.9880537986755371], "min" : [-0.9727320671081543, -0.9913893342018127, -0.8923777937889099], "name" : "NORMAL"}, {"bufferView" : 7, "byteOffset" : 24, "componentType" : 5126, "count" : 1992, "type" : "VEC4", "max" : [0.9994814991950989, 0.9943850636482239, 0.8926076889038086, 1], "min" : [-0.9994814991950989, -0.9943850636482239, -0.9556113481521606, 1], "name" : "TANGENT"}, {"bufferView" : 7, "byteOffset" : 40, "componentType" : 5126, "count" : 1992, "type" : "VEC2", "max" : [0.8642444014549255, 0.39408785104751587], "min" : [0.6980332732200623, 0.1870099902153015], "name" : "TEXCOORD_0"}], "asset" : {"generator" : "Aspose.3D 25.3.0", "version" : "2.0"}, "buffers" : [{"uri" : "data:application/octet-stream;base64,", "byteLength" : 1194632}], "bufferViews" : [{"buffer" : 0, "byteOffset" : 0, "byteLength" : 47784, "target" : 34963}, {"buffer" : 0, "byteOffset" : 47788, "byteLength" : 893952, "byteStride" : 48, "target" : 34962}, {"buffer" : 0, "byteOffset" : 941744, "byteLength" : 22464, "byteStride" : 48, "target" : 34962}, {"buffer" : 0, "byteOffset" : 964212, "byteLength" : 55296, "byteStride" : 48, "target" : 34962}, {"buffer" : 0, "byteOffset" : 1019512, "byteLength" : 13824, "byteStride" : 48, "target" : 34962}, {"buffer" : 0, "byteOffset" : 1033340, "byteLength" : 13824, "byteStride" : 48, "target" : 34962}, {"buffer" : 0, "byteOffset" : 1047168, "byteLength" : 51840, "byteStride" : 48, "target" : 34962}, {"buffer" : 0, "byteOffset" : 1099012, "byteLength" : 95616, "byteStride" : 48, "target" : 34962}], "materials" : [{"name" : "Luminaris", "pbrMetallicRoughness" : {"baseColorFactor" : [0.9339622855186462, 0.8238252401351929, 0.8995873332023621, 1], "metallicFactor" : 1, "roughnessFactor" : 1}, "emissiveFactor" : [0, 0, 0], "alphaMode" : "OPAQUE", "doubleSided" : false}, {"name" : "Core_engine", "pbrMetallicRoughness" : {"baseColorFactor" : [0.9716981053352356, 0.1420878767967224, 0.1420878767967224, 1], "metallicFactor" : 1, "roughnessFactor" : 1}, "emissiveFactor" : [0, 0, 0], "alphaMode" : "OPAQUE", "doubleSided" : false}, {"name" : "ribs003", "pbrMetallicRoughness" : {"baseColorFactor" : [0.46902209520339966, 0.556603729724884, 0.3596920371055603, 1], "metallicFactor" : 1, "roughnessFactor" : 1}, "emissiveFactor" : [0, 0, 0], "alphaMode" : "OPAQUE", "doubleSided" : false}, {"name" : "ribs004", "pbrMetallicRoughness" : {"baseColorFactor" : [0.42856350541114807, 0.5754716396331787, 0.2415894865989685, 1], "metallicFactor" : 1, "roughnessFactor" : 1}, "emissiveFactor" : [0, 0, 0], "alphaMode" : "OPAQUE", "doubleSided" : false}, {"name" : "ribs005", "pbrMetallicRoughness" : {"baseColorFactor" : [0.5764705538749695, 0.2431372106075287, 0.43340957164764404, 1], "metallicFactor" : 1, "roughnessFactor" : 1}, "emissiveFactor" : [0, 0, 0], "alphaMode" : "OPAQUE", "doubleSided" : false}, {"name" : "Upperengine", "pbrMetallicRoughness" : {"baseColorFactor" : [0.8396226167678833, 0.08366438001394272, 0.051486290991306305, 1], "metallicFactor" : 1, "roughnessFactor" : 1}, "emissiveFactor" : [0, 0, 0], "alphaMode" : "OPAQUE", "doubleSided" : false}], "meshes" : [{"primitives" : [{"attributes" : {"POSITION" : 1, "NORMAL" : 2, "TANGENT" : 3, "TEXCOORD_0" : 4}, "indices" : 0, "material" : 0, "mode" : 4}], "name" : "Scene"}, {"primitives" : [{"attributes" : {"POSITION" : 6, "NORMAL" : 7, "TANGENT" : 8, "TEXCOORD_0" : 9}, "indices" : 5, "material" : 1, "mode" : 4}], "name" : "Scene"}, {"primitives" : [{"attributes" : {"POSITION" : 11, "NORMAL" : 12, "TANGENT" : 13, "TEXCOORD_0" : 14}, "indices" : 10, "material" : 2, "mode" : 4}], "name" : "Scene"}, {"primitives" : [{"attributes" : {"POSITION" : 16, "NORMAL" : 17, "TANGENT" : 18, "TEXCOORD_0" : 19}, "indices" : 15, "material" : 3, "mode" : 4}], "name" : "Scene"}, {"primitives" : [{"attributes" : {"POSITION" : 21, "NORMAL" : 22, "TANGENT" : 23, "TEXCOORD_0" : 24}, "indices" : 20, "material" : 4, "mode" : 4}], "name" : "Scene"}, {"primitives" : [{"attributes" : {"POSITION" : 26, "NORMAL" : 27, "TANGENT" : 28, "TEXCOORD_0" : 29}, "indices" : 25, "material" : 5, "mode" : 4}], "name" : "Scene"}, {"primitives" : [{"attributes" : {"POSITION" : 31, "NORMAL" : 32, "TANGENT" : 33, "TEXCOORD_0" : 34}, "indices" : 30, "material" : 5, "mode" : 4}], "name" : "Scene"}], "nodes" : [{"mesh" : 1, "name" : "Core_engine"}, {"matrix" : [1, 0, 0, 0, 0, 1, 0, 0, 0, 0, 1, 0, -3.450442065400239E-06, 0, 0, 1], "mesh" : 2, "name" : "core_engine_ribs003"}, {"matrix" : [0.09202898583172889, -0.0381859101875203, 0, 0, 0.0381859101875203, 0.09202898583172889, 0, 0, 0, 0, 0.09963683038949966, 0, 73.96650910377502, 217.16458797454834, 43.888360261917114, 1], "mesh" : 3, "name" : "core_engine_ribs004"}, {"matrix" : [0.09202898583172889, -0.0381859101875203, 0, 0, 0.0381859101875203, 0.09202898583172889, 0, 0, 0, 0, 0.09963683038949966, 0, -73.97000789642334, 217.16458797454834, 43.888360261917114, 1], "mesh" : 4, "name" : "core_engine_ribs005"}, {"matrix" : [1, 0, 0, 0, 0, 1, 0, 0, 0, 0, 1, 0, 0, 0, -15.30473679304123, 1], "mesh" : 5, "name" : "lower_Rotor"}, {"mesh" : 6, "name" : "upper_engine"}, {"children" : [0, 1, 2, 3, 4, 5], "matrix" : [0.009999999776482582, 0, 0, 0, 0, 2.8327693855066587E-18, -0.009999999776482582, 0, 0, 0.009999999776482582, 2.8327693855066587E-18, 0, 0, -4.1999999433755875, 0, 1], "mesh" : 0, "name" : "Luminaris_Starship"}, {"children" : [6], "name" : "Luminaris"}], "scene" : 0, "scenes" : [{"nodes" : [7]}]}